HIERARCHY
ROOT Hips
{
  OFFSET 0.000000 95.000000 0.000000
  CHANNELS 6 Xposition Yposition Zposition Zrotation Xrotation Yrotation
  JOINT Spine
  {
    OFFSET 0.000000 10.000000 0.000000
    CHANNELS 3 Zrotation Xrotation Yrotation
    JOINT Spine1
    {
      OFFSET 0.000000 12.000000 0.000000
      CHANNELS 3 Zrotation Xrotation Yrotation
      JOINT Spine2
      {
        OFFSET 0.000000 12.000000 0.000000
        CHANNELS 3 Zrotation Xrotation Yrotation
        JOINT Neck
        {
          OFFSET 0.000000 10.000000 0.000000
          CHANNELS 3 Zrotation Xrotation Yrotation
          JOINT Head
          {
            OFFSET 0.000000 8.000000 0.000000
            CHANNELS 3 Zrotation Xrotation Yrotation
            End Site
            {
              OFFSET 0.000000 10.000000 0.000000
            }
          }
        }
        JOINT LeftShoulder
        {
          OFFSET 6.000000 8.000000 0.000000
          CHANNELS 3 Zrotation Xrotation Yrotation
          JOINT LeftArm
          {
            OFFSET 12.000000 0.000000 0.000000
            CHANNELS 3 Zrotation Xrotation Yrotation
            JOINT LeftForeArm
            {
              OFFSET 24.000000 0.000000 0.000000
              CHANNELS 3 Zrotation Xrotation Yrotation
              JOINT LeftHand
              {
                OFFSET 22.000000 0.000000 0.000000
                CHANNELS 3 Zrotation Xrotation Yrotation
                JOINT LeftHandThumb1
                {
                  OFFSET 1.800000 -1.400000 0.500000
                  CHANNELS 3 Zrotation Xrotation Yrotation
                  JOINT LeftHandThumb2
                  {
                    OFFSET 2.400000 0.000000 0.000000
                    CHANNELS 3 Zrotation Xrotation Yrotation
                    JOINT LeftHandThumb3
                    {
                      OFFSET 1.900000 0.000000 0.000000
                      CHANNELS 3 Zrotation Xrotation Yrotation
                      End Site
                      {
                        OFFSET 1.600000 0.000000 0.000000
                      }
                    }
                  }
                }
                JOINT LeftHandIndex1
                {
                  OFFSET 6.600000 1.200000 0.300000
                  CHANNELS 3 Zrotation Xrotation Yrotation
                  JOINT LeftHandIndex2
                  {
                    OFFSET 2.000000 0.000000 0.000000
                    CHANNELS 3 Zrotation Xrotation Yrotation
                    JOINT LeftHandIndex3
                    {
                      OFFSET 1.200000 0.000000 0.000000
                      CHANNELS 3 Zrotation Xrotation Yrotation
                      End Site
                      {
                        OFFSET 1.000000 0.000000 0.000000
                      }
                    }
                  }
                }
                JOINT LeftHandMiddle1
                {
                  OFFSET 7.200000 0.000000 0.300000
                  CHANNELS 3 Zrotation Xrotation Yrotation
                  JOINT LeftHandMiddle2
                  {
                    OFFSET 3.000000 0.000000 0.000000
                    CHANNELS 3 Zrotation Xrotation Yrotation
                    JOINT LeftHandMiddle3
                    {
                      OFFSET 2.000000 0.000000 0.000000
                      CHANNELS 3 Zrotation Xrotation Yrotation
                      End Site
                      {
                        OFFSET 1.600000 0.000000 0.000000
                      }
                    }
                  }
                }
                JOINT LeftHandRing1
                {
                  OFFSET 7.100000 -1.000000 0.400000
                  CHANNELS 3 Zrotation Xrotation Yrotation
                  JOINT LeftHandRing2
                  {
                    OFFSET 2.600000 0.000000 0.000000
                    CHANNELS 3 Zrotation Xrotation Yrotation
                    JOINT LeftHandRing3
                    {
                      OFFSET 1.600000 0.000000 0.000000
                      CHANNELS 3 Zrotation Xrotation Yrotation
                      End Site
                      {
                        OFFSET 1.300000 0.000000 0.000000
                      }
                    }
                  }
                }
                JOINT LeftHandPinky1
                {
                  OFFSET 6.500000 -2.000000 0.500000
                  CHANNELS 3 Zrotation Xrotation Yrotation
                  JOINT LeftHandPinky2
                  {
                    OFFSET 1.900000 0.000000 0.000000
                    CHANNELS 3 Zrotation Xrotation Yrotation
                    JOINT LeftHandPinky3
                    {
                      OFFSET 1.400000 0.000000 0.000000
                      CHANNELS 3 Zrotation Xrotation Yrotation
                      End Site
                      {
                        OFFSET 1.300000 0.000000 0.000000
                      }
                    }
                  }
                }
              }
            }
          }
        }
        JOINT RightShoulder
        {
          OFFSET -6.000000 8.000000 0.000000
          CHANNELS 3 Zrotation Xrotation Yrotation
          JOINT RightArm
          {
            OFFSET -12.000000 0.000000 0.000000
            CHANNELS 3 Zrotation Xrotation Yrotation
            JOINT RightForeArm
            {
              OFFSET -24.000000 0.000000 0.000000
              CHANNELS 3 Zrotation Xrotation Yrotation
              JOINT RightHand
              {
                OFFSET -22.000000 0.000000 0.000000
                CHANNELS 3 Zrotation Xrotation Yrotation
                JOINT RightHandThumb1
                {
                  OFFSET -1.800000 -1.400000 0.500000
                  CHANNELS 3 Zrotation Xrotation Yrotation
                  JOINT RightHandThumb2
                  {
                    OFFSET -2.400000 0.000000 0.000000
                    CHANNELS 3 Zrotation Xrotation Yrotation
                    JOINT RightHandThumb3
                    {
                      OFFSET -1.900000 0.000000 0.000000
                      CHANNELS 3 Zrotation Xrotation Yrotation
                      End Site
                      {
                        OFFSET -1.600000 0.000000 0.000000
                      }
                    }
                  }
                }
                JOINT RightHandIndex1
                {
                  OFFSET -6.600000 1.200000 0.300000
                  CHANNELS 3 Zrotation Xrotation Yrotation
                  JOINT RightHandIndex2
                  {
                    OFFSET -2.000000 0.000000 0.000000
                    CHANNELS 3 Zrotation Xrotation Yrotation
                    JOINT RightHandIndex3
                    {
                      OFFSET -1.200000 0.000000 0.000000
                      CHANNELS 3 Zrotation Xrotation Yrotation
                      End Site
                      {
                        OFFSET -1.000000 0.000000 0.000000
                      }
                    }
                  }
                }
                JOINT RightHandMiddle1
                {
                  OFFSET -7.200000 0.000000 0.300000
                  CHANNELS 3 Zrotation Xrotation Yrotation
                  JOINT RightHandMiddle2
                  {
                    OFFSET -3.000000 0.000000 0.000000
                    CHANNELS 3 Zrotation Xrotation Yrotation
                    JOINT RightHandMiddle3
                    {
                      OFFSET -2.000000 0.000000 0.000000
                      CHANNELS 3 Zrotation Xrotation Yrotation
                      End Site
                      {
                        OFFSET -1.600000 0.000000 0.000000
                      }
                    }
                  }
                }
                JOINT RightHandRing1
                {
                  OFFSET -7.100000 -1.000000 0.400000
                  CHANNELS 3 Zrotation Xrotation Yrotation
                  JOINT RightHandRing2
                  {
                    OFFSET -2.600000 0.000000 0.000000
                    CHANNELS 3 Zrotation Xrotation Yrotation
                    JOINT RightHandRing3
                    {
                      OFFSET -1.600000 0.000000 0.000000
                      CHANNELS 3 Zrotation Xrotation Yrotation
                      End Site
                      {
                        OFFSET -1.300000 0.000000 0.000000
                      }
                    }
                  }
                }
                JOINT RightHandPinky1
                {
                  OFFSET -6.500000 -2.000000 0.500000
                  CHANNELS 3 Zrotation Xrotation Yrotation
                  JOINT RightHandPinky2
                  {
                    OFFSET -1.900000 0.000000 0.000000
                    CHANNELS 3 Zrotation Xrotation Yrotation
                    JOINT RightHandPinky3
                    {
                      OFFSET -1.400000 0.000000 0.000000
                      CHANNELS 3 Zrotation Xrotation Yrotation
                      End Site
                      {
                        OFFSET -1.300000 0.000000 0.000000
                      }
                    }
                  }
                }
              }
            }
          }
        }
      }
    }
  }
  JOINT LeftUpLeg
  {
    OFFSET 10.000000 -5.000000 0.000000
    CHANNELS 3 Zrotation Xrotation Yrotation
    JOINT LeftLeg
    {
      OFFSET 0.000000 -42.000000 0.000000
      CHANNELS 3 Zrotation Xrotation Yrotation
      JOINT LeftFoot
      {
        OFFSET 0.000000 -42.000000 4.000000
        CHANNELS 3 Zrotation Xrotation Yrotation
        End Site
        {
          OFFSET 0.000000 0.000000 12.000000
        }
      }
    }
  }
  JOINT RightUpLeg
  {
    OFFSET -10.000000 -5.000000 0.000000
    CHANNELS 3 Zrotation Xrotation Yrotation
    JOINT RightLeg
    {
      OFFSET 0.000000 -42.000000 0.000000
      CHANNELS 3 Zrotation Xrotation Yrotation
      JOINT RightFoot
      {
        OFFSET 0.000000 -42.000000 4.000000
        CHANNELS 3 Zrotation Xrotation Yrotation
        End Site
        {
          OFFSET 0.000000 0.000000 12.000000
        }
      }
    }
  }
}
MOTION
Frames: 4
Frame Time: 0.033333
0.0000 95.0000 0.0000 0.0000 0.0000 0.0000 0.0000 0.0000 0.0000 0.0000 0.0000 0.0000 0.0000 0.0000 0.0000 0.0000 0.0000 0.0000 0.0000 0.0000 0.0000 0.0000 0.0000 0.0000 -78.7311 2.5415 3.0977 -8.8568 -5.3718 8.1880 -44.1389 -60.0681 -139.0935 38.6222 -10.3033 -4.9503 1.8849 0.0000 0.0000 4.3831 0.0000 0.0000 -3.6331 2.8623 -18.0686 11.4964 0.0000 0.0000 4.8764 0.0000 0.0000 6.5270 0.9796 -21.8259 11.9967 0.0000 0.0000 1.9959 0.0000 0.0000 14.1101 -1.1542 -22.4377 18.8552 0.0000 0.0000 6.5469 0.0000 0.0000 21.1690 -4.0904 -22.4090 16.8956 0.0000 0.0000 10.8618 0.0000 0.0000 0.0000 0.0000 0.0000 90.4054 2.3237 -2.3073 -1.2075 9.2122 9.0269 -33.6467 -7.5443 33.6650 -84.1022 -10.9329 60.3670 11.8323 0.0000 0.0000 18.6728 0.0000 0.0000 -22.2589 15.5004 41.2570 55.5137 0.0000 0.0000 7.5168 0.0000 0.0000 -31.8648 26.1883 83.1181 21.9216 0.0000 0.0000 2.1543 0.0000 0.0000 -34.0662 17.2045 96.2293 20.0585 0.0000 0.0000 3.8790 0.0000 0.0000 -40.2575 4.7905 106.7005 17.7468 0.0000 0.0000 3.0102 0.0000 0.0000 0.0000 0.0000 0.0000 0.0000 0.0000 0.0000 0.0000 0.0000 0.0000 0.0000 0.0000 0.0000 0.0000 0.0000 0.0000 0.0000 0.0000 0.0000
0.0000 95.0000 0.0000 0.0000 0.0000 0.0000 0.0000 0.0000 0.0000 0.0000 0.0000 0.0000 0.0000 0.0000 0.0000 0.0000 0.0000 0.0000 0.0000 0.0000 0.0000 0.0000 0.0000 0.0000 -78.9987 1.9937 2.4185 -8.8940 -5.3448 8.0100 -43.5926 -59.3326 -138.8421 38.6222 -10.3033 -4.9503 1.8849 0.0000 0.0000 4.3831 0.0000 0.0000 -3.6331 2.8623 -18.0686 11.4964 0.0000 0.0000 4.8764 0.0000 0.0000 6.5270 0.9796 -21.8259 11.9967 0.0000 0.0000 1.9959 0.0000 0.0000 14.1101 -1.1542 -22.4377 18.8552 0.0000 0.0000 6.5469 0.0000 0.0000 21.1690 -4.0904 -22.4090 16.8956 0.0000 0.0000 10.8618 0.0000 0.0000 0.0000 0.0000 0.0000 90.4111 2.2096 -2.1938 -1.4516 9.2982 9.0777 -33.5438 -7.8457 33.4817 -84.1022 -10.9329 60.3670 11.8323 0.0000 0.0000 18.6728 0.0000 0.0000 -22.2589 15.5004 41.2570 55.5137 0.0000 0.0000 7.5168 0.0000 0.0000 -31.8648 26.1883 83.1181 21.9216 0.0000 0.0000 2.1543 0.0000 0.0000 -34.0662 17.2045 96.2293 20.0585 0.0000 0.0000 3.8790 0.0000 0.0000 -40.2575 4.7905 106.7005 17.7468 0.0000 0.0000 3.0102 0.0000 0.0000 0.0000 0.0000 0.0000 0.0000 0.0000 0.0000 0.0000 0.0000 0.0000 0.0000 0.0000 0.0000 0.0000 0.0000 0.0000 0.0000 0.0000 0.0000
0.0000 95.0000 0.0000 0.0000 0.0000 0.0000 0.0000 0.0000 0.0000 0.0000 0.0000 0.0000 0.0000 0.0000 0.0000 0.0000 0.0000 0.0000 0.0000 0.0000 0.0000 0.0000 0.0000 0.0000 -79.0511 1.4602 1.7698 -8.9950 -5.2288 7.7511 -42.8008 -58.6486 -138.7269 38.6222 -10.3033 -4.9503 1.8849 0.0000 0.0000 4.3831 0.0000 0.0000 -3.6331 2.8623 -18.0686 11.4964 0.0000 0.0000 4.8764 0.0000 0.0000 6.5270 0.9796 -21.8259 11.9967 0.0000 0.0000 1.9959 0.0000 0.0000 14.1101 -1.1542 -22.4377 18.8552 0.0000 0.0000 6.5469 0.0000 0.0000 21.1690 -4.0904 -22.4090 16.8956 0.0000 0.0000 10.8618 0.0000 0.0000 0.0000 0.0000 0.0000 90.4248 1.9249 -1.9107 -1.7291 9.5249 9.2514 -33.5610 -8.4260 33.0119 -84.1022 -10.9329 60.3670 11.8323 0.0000 0.0000 18.6728 0.0000 0.0000 -22.2589 15.5004 41.2570 55.5137 0.0000 0.0000 7.5168 0.0000 0.0000 -31.8648 26.1883 83.1181 21.9216 0.0000 0.0000 2.1543 0.0000 0.0000 -34.0662 17.2045 96.2293 20.0585 0.0000 0.0000 3.8790 0.0000 0.0000 -40.2575 4.7905 106.7005 17.7468 0.0000 0.0000 3.0102 0.0000 0.0000 0.0000 0.0000 0.0000 0.0000 0.0000 0.0000 0.0000 0.0000 0.0000 0.0000 0.0000 0.0000 0.0000 0.0000 0.0000 0.0000 0.0000 0.0000
0.0000 95.0000 0.0000 0.0000 0.0000 0.0000 0.0000 0.0000 0.0000 0.0000 0.0000 0.0000 0.0000 0.0000 0.0000 0.0000 0.0000 0.0000 0.0000 0.0000 0.0000 0.0000 0.0000 0.0000 -79.2070 1.0213 1.2344 -8.8768 -5.2150 7.6016 -42.1213 -58.2017 -138.7163 38.6222 -10.3033 -4.9503 1.8849 0.0000 0.0000 4.3831 0.0000 0.0000 -3.6331 2.8623 -18.0686 11.4964 0.0000 0.0000 4.8764 0.0000 0.0000 6.5270 0.9796 -21.8259 11.9967 0.0000 0.0000 1.9959 0.0000 0.0000 14.1101 -1.1542 -22.4377 18.8552 0.0000 0.0000 6.5469 0.0000 0.0000 21.1690 -4.0904 -22.4090 16.8956 0.0000 0.0000 10.8618 0.0000 0.0000 0.0000 0.0000 0.0000 90.2930 2.1481 -2.1372 -1.8427 9.6169 9.3560 -33.2887 -8.4722 33.1174 -84.1022 -10.9329 60.3670 11.8323 0.0000 0.0000 18.6728 0.0000 0.0000 -22.2589 15.5004 41.2570 55.5137 0.0000 0.0000 7.5168 0.0000 0.0000 -31.8648 26.1883 83.1181 21.9216 0.0000 0.0000 2.1543 0.0000 0.0000 -34.0662 17.2045 96.2293 20.0585 0.0000 0.0000 3.8790 0.0000 0.0000 -40.2575 4.7905 106.7005 17.7468 0.0000 0.0000 3.0102 0.0000 0.0000 0.0000 0.0000 0.0000 0.0000 0.0000 0.0000 0.0000 0.0000 0.0000 0.0000 0.0000 0.0000 0.0000 0.0000 0.0000 0.0000 0.0000 0.0000
